# xmcd CD database file
#
# Track frame offsets:
#	150
#	19430
#	32218
#	49838
#	66495
#	79465
#	98125
#	117038
#	134898
#	152818
#	168230
#	181710
#
# Disc length: 2676 seconds
#
# Revision: 0
# Processed by: cddbd v1.5.2PL0 Copyright (c) Steve Scherf et al.
# Submitted via: ACXtractor (MTCDDB.DLL V2003.07.15)
#
DISCID=a80a720c
DTITLE=Ernie Constance - Colours of a Song
DYEAR=1998
DGENRE=Country
TTITLE0=Colours of a Song
TTITLE1=The Sundown Cup
TTITLE2=Auntie Clara
TTITLE3=The Old Place
TTITLE4=Picaninny Playing
TTITLE5=The Strength Within us All
TTITLE6=Lonely Motel Room
TTITLE7=Leaning Post
TTITLE8=An Angel in Disguise
TTITLE9=Families On the Land
TTITLE10=Badja River Song
TTITLE11=Gone Droving Again
EXTD=ID3G:   2 YEAR: 1998
EXTT0=
EXTT1=
EXTT2=
EXTT3=
EXTT4=
EXTT5=
EXTT6=
EXTT7=
EXTT8=
EXTT9=
EXTT10=
EXTT11=
PLAYORDER=
